HIERARCHY
ROOT Hips
{
     OFFSET 10.75540 96.57940 7.64799
     CHANNELS 6 Xposition Yposition Zposition Zrotation Xrotation Yrotation
     JOINT Spine
     {
          OFFSET -0.00000 11.89050 0.00000
          CHANNELS 3 Zrotation Xrotation Yrotation
          JOINT Spine1
          {
               OFFSET -0.00000 25.65740 0.12766
               CHANNELS 3 Zrotation Xrotation Yrotation
               JOINT HEad
               {
                    OFFSET -0.00000 8.73416 0.01134
                    CHANNELS 3 Zrotation Xrotation Yrotation
                    End Site
                    {
                         OFFSET -0.29000 12.77420 2.51395
                    }
               }
               JOINT LeftShoulder1
               {
                    OFFSET 8.99000 -0.36225 -0.22000
                    CHANNELS 3 Zrotation Xrotation Yrotation
                    JOINT LeftArm
                    {
                         OFFSET 10.28270 -0.00338 0.32212
                         CHANNELS 3 Zrotation Xrotation Yrotation
                         JOINT LeftForeArm
                         {
                              OFFSET 32.76690 0.09914 -1.42434
                              CHANNELS 3 Zrotation Xrotation Yrotation
                              JOINT LeftHand
                              {
                                   OFFSET 27.56430 0.08536 1.02216
                                   CHANNELS 3 Zrotation Xrotation Yrotation
                                   End Site
                                   {
                                        OFFSET 16.74430 -0.60000 1.50291
                                   }
                              }
                         }
                    }
               }
               JOINT RightShoulder
               {
                    OFFSET -8.99000 -0.36225 -0.22000
                    CHANNELS 3 Zrotation Xrotation Yrotation
                    JOINT RightArm
                    {
                         OFFSET -10.28270 -0.00338 0.32212
                         CHANNELS 3 Zrotation Xrotation Yrotation
                         JOINT RightForeArm
                         {
                              OFFSET -32.89710 0.09914 -1.42434
                              CHANNELS 3 Zrotation Xrotation Yrotation
                              JOINT RightHand
                              {
                                   OFFSET -27.49210 0.08536 1.02216
                                   CHANNELS 3 Zrotation Xrotation Yrotation
                                   End Site
                                   {
                                        OFFSET -16.63120 -0.60000 1.50291
                                   }
                              }
                         }
                    }
               }
          }
     }
     JOINT LeftUpLeg
     {
          OFFSET 8.94580 -8.66707 0.10165
          CHANNELS 3 Zrotation Xrotation Yrotation
          JOINT LeftLeg
          {
               OFFSET 0.00000 -44.42270 1.37270
               CHANNELS 3 Zrotation Xrotation Yrotation
               JOINT LeftFoot
               {
                    OFFSET -0.25355 -42.09240 -1.46059
                    CHANNELS 3 Zrotation Xrotation Yrotation
                    JOINT LeftToes
                    {
                         OFFSET -0.04000 -4.41509 8.49910
                         CHANNELS 3 Zrotation Xrotation Yrotation
                         End Site
                         {
                              OFFSET 0.08000 -0.04745 9.77979
                         }
                    }
               }
          }
     }
     JOINT RightUpLeg
     {
          OFFSET -8.94580 -8.66707 0.10165
          CHANNELS 3 Zrotation Xrotation Yrotation
          JOINT RightLeg
          {
               OFFSET -0.00000 -44.42270 1.37270
               CHANNELS 3 Zrotation Xrotation Yrotation
               JOINT RightFoot
               {
                    OFFSET 0.25355 -42.09240 -1.46059
                    CHANNELS 3 Zrotation Xrotation Yrotation
                    JOINT RightToes
                    {
                         OFFSET 0.04000 -4.41509 8.49910
                         CHANNELS 3 Zrotation Xrotation Yrotation
                         End Site
                         {
                              OFFSET -0.08000 -0.13745 9.77979
                         }
                    }
               }
          }
     }
}
MOTION
Frames: 12
Frame Time: 0.01667
7.10436 94.94420 20.85640 -10.46730 -0.51664 -119.69500 -14.88520 10.57480 -0.28836 -4.77716 22.26620 -5.37301 6.16304 -3.34622 -8.47763 -0.00000 -0.00000 0.00000 -82.40760 -38.76770 -55.05850 -32.86600 36.81330 -81.60000 16.87180 7.37654 -13.50940 20.81150 0.69964 0.65291 78.08250 -8.59698 62.52050 23.16710 32.32760 93.90370 20.76490 11.44800 3.96015 18.54760 -11.63630 6.97496 -41.89600 50.39840 85.49120 3.26068 13.01570 -0.67964 -1.72263 -38.30610 -64.37380 -17.54180 1.65212 0.29862 40.54060 7.65430 -46.35530 -50.02260 -1.22347 2.88937 15.07140 -55.23660 23.83270 
6.74221 94.57660 21.15240 -10.58360 0.45675 -122.41300 -14.36900 11.31650 -0.58840 -4.89377 22.99940 -5.23229 5.77312 -3.55972 -6.86485 -0.00000 -0.00000 0.00000 -83.41940 -39.59070 -57.75810 -32.99350 37.50580 -81.39920 17.04960 7.32634 -13.66010 20.42830 0.74318 0.88410 79.21950 -8.52693 63.37950 22.79750 32.40220 93.98090 20.82750 11.42430 3.80915 19.08790 -13.85620 6.04737 -41.27770 48.91630 84.71490 3.15822 12.72950 -0.65166 -3.09884 -40.42180 -66.42020 -16.77430 0.08528 0.62568 40.10450 11.18130 -46.96870 -50.27680 -1.72482 2.66841 16.04210 -56.69660 24.60060 
6.27808 94.15440 21.47960 -10.62540 1.39633 -124.95000 -13.56050 12.06650 -0.95018 -5.09834 23.74110 -5.04455 5.41511 -3.81074 -5.36205 -0.00000 -0.00000 0.00000 -84.43500 -40.40360 -60.54160 -33.12370 38.17170 -81.14010 17.32180 7.26488 -13.78040 20.21560 0.78238 1.08279 80.20210 -8.40138 64.16090 22.46800 32.51010 94.09780 20.82430 11.41160 3.74290 19.66320 -15.81120 4.43966 -40.59200 46.23900 83.99220 2.80623 12.32960 -0.57712 -3.76776 -41.24100 -67.66050 -16.04990 -1.33368 0.91154 39.75680 14.50100 -47.49980 -50.53330 -2.23312 2.44137 16.85120 -57.89240 25.19310 
5.67290 93.67110 21.82820 -10.59910 2.31779 -127.39100 -12.46040 12.74270 -1.33936 -5.34620 24.41460 -4.81442 5.02173 -4.03982 -3.94594 -0.00000 -0.00000 0.00000 -85.50110 -41.31730 -63.32010 -33.37740 38.90390 -80.74330 17.69170 7.18919 -13.88570 20.14510 0.83644 1.33352 80.94750 -8.29308 64.85260 22.26310 32.63560 94.15920 20.74410 11.41750 3.80506 20.21190 -17.45310 2.39121 -39.66900 42.70300 83.12710 2.22779 11.95320 -0.46706 -3.77314 -41.11400 -67.96780 -15.39490 -2.68994 1.09320 39.54900 17.83260 -48.03450 -50.70800 -2.86514 2.14747 17.45420 -58.84630 25.53910 
4.90013 93.12350 22.17700 -10.50530 3.23662 -129.78200 -11.11010 13.28380 -1.72495 -5.55593 24.97170 -4.57360 4.52736 -4.18995 -2.61435 -0.00000 -0.00000 0.00000 -86.71610 -42.39960 -66.03760 -33.75540 39.73920 -80.23360 18.11940 7.10690 -13.96750 20.03380 0.90341 1.64954 81.53060 -8.21850 65.48310 22.17550 32.75110 94.13920 20.63500 11.44420 3.99142 20.71420 -18.75000 0.11192 -38.40890 38.58490 82.05160 1.58912 11.76260 -0.35440 -3.26929 -40.35660 -67.37200 -14.83740 -3.94287 1.14757 39.53600 21.13470 -48.59720 -50.77700 -3.60838 1.79241 17.79070 -59.58670 25.52560 
3.94675 92.53060 22.49540 -10.32180 4.17571 -132.14000 -9.53689 13.66340 -2.08657 -5.66221 25.40270 -4.35522 3.89791 -4.23648 -1.38074 -0.00000 -0.00000 0.00000 -88.12440 -43.61590 -68.64880 -34.10270 40.62390 -79.77560 18.54600 7.03295 -13.99350 19.72320 0.96420 1.97156 82.05750 -8.13753 66.10780 22.19660 32.84300 94.03980 20.55180 11.48370 4.23777 21.20080 -19.65790 -2.22559 -36.74590 34.03240 80.68480 1.05831 11.91350 -0.26709 -2.38725 -39.10200 -65.97820 -14.36980 -5.04014 1.05788 39.73920 24.33730 -49.09350 -50.65980 -4.37029 1.42009 17.78000 -60.07240 25.05850 
2.81465 91.93850 22.74940 -10.00860 5.17661 -134.49200 -7.74177 13.89050 -2.40509 -5.62453 25.73560 -4.15276 3.13045 -4.18839 -0.26016 -0.00000 -0.00000 0.00000 -89.80120 -44.94490 -71.16120 -34.33790 41.56490 -79.46770 18.92290 6.97530 -13.96800 19.20350 1.00235 2.23284 82.56060 -8.00138 66.77900 22.31500 32.91650 93.87620 20.52330 11.52210 4.45677 21.75790 -20.06760 -4.41133 -34.61340 29.07190 78.84600 0.74532 12.57330 -0.22207 -1.23037 -37.36320 -63.92470 -13.93400 -5.91033 0.86872 40.11990 27.31870 -49.38290 -50.27980 -5.01596 1.09764 17.47720 -60.28310 24.27350 
1.51961 91.37010 22.90540 -9.58024 6.23135 -136.89200 -5.84496 13.98240 -2.63808 -5.46675 25.99990 -3.91835 2.24926 -4.05917 0.74857 -0.00000 -0.00000 0.00000 -91.88940 -46.40800 -73.64940 -34.57070 42.64700 -79.21300 19.22750 6.92492 -13.97060 18.59900 1.01420 2.39582 82.98250 -7.77307 67.52570 22.46490 32.96840 93.68160 20.57210 11.55030 4.58880 22.42870 -19.84700 -6.20793 -32.05640 23.68920 76.37150 0.71149 13.75760 -0.23054 0.14664 -35.01060 -61.33160 -13.54890 -6.52476 0.68925 40.66470 30.00640 -49.54170 -49.69380 -5.48356 0.85992 17.15660 -60.38030 23.55850 
0.07765 90.83900 22.94310 -9.05948 7.31322 -139.37500 -3.95495 13.95590 -2.75992 -5.22259 26.20270 -3.61398 1.31449 -3.84702 1.66820 -0.00000 -0.00000 0.00000 -94.44900 -47.98730 -76.16270 -35.01240 43.87890 -78.80730 19.45130 6.86454 -14.11130 18.05210 1.00041 2.43042 83.23060 -7.41200 68.34500 22.54630 32.97550 93.48230 20.71310 11.57140 4.64185 23.24970 -18.88390 -7.53488 -29.29450 17.74180 73.26060 1.03779 15.23510 -0.31346 1.73213 -31.74550 -58.23900 -13.25560 -6.85462 0.61740 41.35810 32.30040 -49.74040 -49.07010 -5.74704 0.72249 17.09130 -60.60130 23.23960 
-1.50080 90.35050 22.85530 -8.44488 8.37820 -141.92599 -2.12854 13.82300 -2.77912 -4.90050 26.32530 -3.25013 0.39371 -3.54001 2.54226 -0.00000 -0.00000 0.00000 -97.40900 -49.63320 -78.69520 -35.88040 45.17180 -78.05430 19.56210 6.79206 -14.43120 17.61200 0.95983 2.31198 83.26160 -6.86983 69.20160 22.47130 32.90800 93.28800 20.92550 11.59420 4.67324 24.26600 -17.13750 -8.53433 -26.64730 10.98840 69.75020 1.82175 16.71050 -0.50168 3.43342 -27.32640 -54.66370 -13.08030 -6.91299 0.65952 42.16540 34.16130 -50.04550 -48.52260 -5.82592 0.67498 17.35510 -61.07100 23.34910 
-3.22787 89.88550 22.62700 -7.72142 9.36447 -144.49899 -0.41954 13.61680 -2.74015 -4.50718 26.35530 -2.86765 -0.49690 -3.13226 3.42068 -0.00000 -0.00000 0.00000 -100.62100 -51.31090 -81.22280 -37.25650 46.41700 -76.89620 19.52170 6.72798 -14.85060 17.22480 0.90054 2.08365 83.11820 -6.14797 70.05530 22.17740 32.74280 93.11610 21.15920 11.62210 4.72174 25.33550 -15.84580 -9.21389 -24.47320 5.73832 66.24780 1.88701 17.47100 -0.53259 5.01983 -21.84190 -50.77470 -13.03520 -6.77604 0.75869 43.07020 35.68650 -50.42580 -48.05060 -5.84897 0.65529 17.79530 -61.73470 23.62280 
-5.17758 89.36320 22.19050 -6.89871 10.19630 -146.99200 1.05949 13.42490 -2.74249 -4.09001 26.32330 -2.50084 -1.37401 -2.64318 4.32486 -0.00000 -0.00000 0.00000 -103.80600 -52.97970 -83.64890 -38.90510 47.49670 -75.55360 19.38090 6.68674 -15.24050 16.81370 0.84452 1.86785 82.88490 -5.34415 70.89680 21.63490 32.48440 92.99440 21.34900 11.65240 4.79991 26.25810 -15.31600 -9.76025 -22.57330 2.49671 62.99480 0.95242 17.27050 -0.32560 6.26454 -15.69990 -46.90800 -13.16340 -6.56089 0.86813 44.16070 37.15650 -50.96730 -47.52060 -6.11183 0.52675 18.13360 -62.40770 23.68460 
